<?xml version="1.0" standalone="no"?>
<svg xmlns="http://www.w3.org/2000/svg" width="48" height="48"><rect width="48" height="48" opacity="0"></rect><g><path d="M25.06 34.42L25.06 11.9Q25.06 11.42 24.77 11.09Q24.48 10.75 24 10.75Q23.52 10.75 23.23 11.09Q22.94 11.42 22.94 11.9L22.94 34.46L14.21 25.73Q13.87 25.34 13.44 25.32Q13.01 25.3 12.67 25.63Q12.34 25.97 12.36 26.4Q12.38 26.83 12.77 27.17L21.79 36.19Q22.75 37.2 24 37.2Q25.25 37.2 26.26 36.19L35.18 27.17Q35.57 26.83 35.57 26.4Q35.57 25.97 35.23 25.63Q34.99 25.3 34.54 25.32Q34.08 25.34 33.74 25.73Z" fill="rgba(25,25,25,1)"></path></g><g><path d="M24 2.45Q18.14 2.45 13.18 5.33Q8.21 8.21 5.33 13.18Q2.45 18.14 2.45 24Q2.45 29.86 5.33 34.82Q8.21 39.79 13.18 42.67Q18.14 45.55 24 45.55Q29.86 45.55 34.8 42.67Q39.74 39.79 42.65 34.82Q45.55 29.86 45.55 24Q45.55 18.14 42.65 13.18Q39.74 8.21 34.8 5.33Q29.86 2.45 24 2.45ZM24 43.44Q18.72 43.44 14.26 40.82Q9.79 38.21 7.18 33.74Q4.56 29.28 4.56 24Q4.56 18.67 7.18 14.21Q9.79 9.74 14.26 7.15Q18.72 4.56 24 4.56Q29.28 4.56 33.74 7.15Q38.21 9.74 40.82 14.21Q43.44 18.67 43.44 24Q43.44 29.28 40.82 33.74Q38.21 38.21 33.74 40.82Q29.28 43.44 24 43.44Z" fill="rgba(0,0,0,0.4)"></path></g></svg>