<svg width="24" height="24" viewBox="0 0 24 24" fill="none" xmlns="http://www.w3.org/2000/svg">
<g id="lianwangsousuo 1">
<g id="Group 1000002742">
<path id="Vector" d="M12 22C6.48475 22 2 17.5153 2 12C2 6.48475 6.48475 2 12 2C17.5153 2 22 6.48475 22 12C22 17.5153 17.5153 22 12 22ZM12 3.2678C7.18644 3.2678 3.2678 7.18644 3.2678 12C3.2678 16.8136 7.18644 20.7322 12 20.7322C16.8136 20.7322 20.7322 16.8169 20.7322 12.0034C20.7322 7.18644 16.8136 3.2678 12 3.2678Z" fill="black" fill-opacity="0.9"/>
<path id="Vector_2" d="M12 15C8.54237 15 2 14.3726 2 12C2 9.62736 8.54237 9 12 9C15.4576 9 22 9.62736 22 12C22 14.3726 15.4576 15 12 15ZM12 10.2514C6.32881 10.2514 3.27119 11.4928 3.27119 12C3.29153 12.5239 6.28814 13.7486 12 13.7486C17.7119 13.7486 20.7085 12.5239 20.7322 12C20.7322 11.4928 17.6712 10.2514 12 10.2514Z" fill="black" fill-opacity="0.9"/>
<path id="Vector_3" d="M11.9983 22C9.40009 22 8 16.8475 8 12C8 7.15254 9.40351 2 11.9983 2C14.5965 2 16 7.15254 16 12C15.9966 16.8475 14.5965 22 11.9983 22ZM11.9983 3.2678C10.8652 3.2678 9.28027 6.58983 9.28027 12C9.28027 17.4102 10.8618 20.7288 11.9983 20.7288C13.1348 20.7288 14.7163 17.4068 14.7163 12C14.7163 6.58983 13.1314 3.2678 11.9983 3.2678Z" fill="black" fill-opacity="0.9"/>
</g>
</g>
</svg>
