<?xml version="1.0" standalone="no"?>
<svg xmlns="http://www.w3.org/2000/svg" width="48" height="48"><rect width="48" height="48" opacity="0"></rect><g><path d="M25.49 33.31L25.49 11.9Q25.49 11.28 25.06 10.85Q24.62 10.42 24 10.42Q23.38 10.42 22.94 10.85Q22.51 11.28 22.51 11.9L22.51 33.36L14.54 25.39Q14.11 24.96 13.49 24.96Q12.86 24.96 12.43 25.39Q12 25.82 12 26.45Q12 27.07 12.43 27.5L21.46 36.53Q22.51 37.58 23.98 37.58Q25.44 37.58 26.54 36.53L35.52 27.5Q35.95 27.07 35.95 26.45Q35.95 25.82 35.52 25.39Q35.14 24.96 34.49 24.96Q33.84 24.96 33.41 25.39Z" fill="rgba(0,0,0,0.9019607843137255)"></path><path d="M24 2.02Q18.05 2.02 12.98 4.97Q7.92 7.92 4.97 12.98Q2.02 18.05 2.02 24Q2.02 29.95 4.97 35.02Q7.92 40.08 12.98 43.03Q18.05 45.98 24 45.98Q29.95 45.98 34.99 43.03Q40.03 40.08 43.01 35.02Q45.98 29.95 45.98 24Q45.98 18.05 43.01 12.98Q40.03 7.92 34.99 4.97Q29.95 2.02 24 2.02ZM24 43.01Q18.86 43.01 14.5 40.44Q10.13 37.87 7.56 33.5Q4.99 29.14 4.99 24Q4.99 18.82 7.56 14.45Q10.13 10.08 14.5 7.54Q18.86 4.99 24 4.99Q29.14 4.99 33.5 7.54Q37.87 10.08 40.44 14.45Q43.01 18.82 43.01 24Q43.01 29.14 40.44 33.5Q37.87 37.87 33.5 40.44Q29.14 43.01 24 43.01Z" fill="rgba(0,0,0,0.9019607843137255)"></path></g></svg>