<svg width="24" height="24" viewBox="0 0 24 24" fill="none" xmlns="http://www.w3.org/2000/svg">
<g id="tijiao 1">
<path id="Vector" d="M22.1493 3.90402L22.1284 4.02912L18.502 19.0685C18.4749 19.181 18.4247 19.2867 18.3545 19.3788C18.2843 19.4708 18.1957 19.5472 18.0944 19.6032C17.9931 19.6592 17.8812 19.6934 17.7659 19.7038C17.6507 19.7141 17.5345 19.7004 17.4248 19.6634L17.3039 19.6106L10.8642 16.2191V19.4057C10.8641 19.6035 10.7938 19.7948 10.6657 19.9455C10.5377 20.0962 10.3602 20.1965 10.165 20.2285L10.0302 20.2396C9.8326 20.2397 9.64143 20.1695 9.49073 20.0417C9.34003 19.914 9.2396 19.7368 9.20733 19.5419L9.19621 19.4057V15.1516C9.19621 14.9712 9.25474 14.7956 9.36301 14.6512L9.45196 14.5511L18.167 6.15437L4.91512 12.0742L7.88408 13.5976C8.06034 13.6877 8.19879 13.8376 8.27467 14.0205C8.35056 14.2033 8.35893 14.4072 8.29829 14.5956L8.24548 14.7207C8.15539 14.8967 8.00574 15.0349 7.82321 15.1108C7.64068 15.1866 7.43713 15.1952 7.24887 15.1349L7.12378 15.0821L2.60639 12.7664C2.47663 12.7 2.36654 12.6008 2.28709 12.4785C2.20765 12.3563 2.16162 12.2154 2.15361 12.0699C2.14559 11.9243 2.17586 11.7792 2.24141 11.649C2.30695 11.5188 2.40548 11.4081 2.52717 11.3278L2.6467 11.2625L20.9775 3.07282C21.1101 3.01348 21.2558 2.98977 21.4003 3.00403C21.5448 3.0183 21.6831 3.07004 21.8014 3.15415C21.9198 3.23825 22.0141 3.3518 22.0752 3.48357C22.1362 3.61533 22.1617 3.76074 22.1493 3.90541V3.90402ZM19.6974 6.9953L11.6495 14.7471L17.1315 17.6355L19.6974 6.9953Z" fill="black" fill-opacity="0.9"/>
</g>
</svg>
