<?xml version="1.0" standalone="no"?>
<svg xmlns="http://www.w3.org/2000/svg" width="48" height="48"><rect width="48" height="48" opacity="0"></rect><g><path d="M42.53 10.03Q43.15 10.03 43.58 9.6Q44.02 9.17 44.02 8.54Q44.02 7.92 43.58 7.46Q43.15 7.01 42.53 7.01L5.47 7.01Q4.85 7.01 4.42 7.46Q3.98 7.92 3.98 8.54Q3.98 9.17 4.42 9.6Q4.85 10.03 5.47 10.03L42.53 10.03ZM29.66 25.49Q30.29 25.49 30.72 25.06Q31.15 24.62 31.15 24Q31.15 23.38 30.72 22.94Q30.29 22.51 29.66 22.51L5.47 22.51Q4.85 22.51 4.42 22.94Q3.98 23.38 3.98 24Q3.98 24.62 4.42 25.06Q4.85 25.49 5.47 25.49L29.66 25.49ZM18.77 40.94Q19.34 40.94 19.8 40.51Q20.26 40.08 20.26 39.46Q20.26 38.83 19.8 38.4Q19.34 37.97 18.77 37.97L5.47 37.97Q4.85 37.97 4.42 38.4Q3.98 38.83 3.98 39.46Q3.98 40.08 4.42 40.51Q4.85 40.94 5.47 40.94L18.77 40.94Z" fill="rgba(0,0,0,0.9019607843137255)"></path></g></svg>