<svg width="24" height="24" viewBox="0 0 24 24" fill="none" xmlns="http://www.w3.org/2000/svg">
<g id="ollama-2 1">
<path id="Vector" d="M19.7348 13.28C20.6639 12.2181 21.1285 8.70066 18.6729 6.77602C19.5 -0.499855 14.8237 0.13936 14.4918 4.51956C12.8327 3.52406 11.0408 3.78953 9.64706 4.51956C9.24886 0.00662732 5 -0.5 5.46596 6.77602C3.14313 8.43519 3.27586 11.7535 4.33773 13.28C4.07226 13.9436 2.94403 16.5983 4.47046 18.9875C3.93953 20.0001 3.80679 20.3103 3.93953 21.5049C4.13863 22.3013 5.39959 22.0359 5.26686 21.1731C5.06776 20.4431 5.26686 20.1442 5.79779 19.1866C5.86416 18.9211 5.86416 18.6557 5.66506 18.4566C4.20499 16.5983 5.20049 14.1427 5.59869 13.5454C5.73143 13.28 5.73143 12.9481 5.46596 12.749C5.13413 12.4172 4.53683 11.0899 4.93503 9.62979C5.46596 7.70516 7.25786 7.37332 8.45246 7.37332C8.71792 7.37332 8.98339 7.24059 9.04976 6.97512C9.71342 5.11686 13.5627 4.25409 14.8237 7.04149C14.9564 7.30696 15.1555 7.43969 15.4873 7.43969C16.4828 7.37332 18.3411 7.57242 18.9384 9.69616C19.403 11.289 18.872 12.5499 18.4075 12.8154C18.0756 13.0145 18.0093 13.4127 18.2084 13.6782C19.6684 16.001 18.7393 17.9256 18.2084 18.6557C18.0756 18.7884 18.0756 19.1202 18.142 19.3193C18.6729 20.2947 18.8057 20.3767 18.6729 21.3722C18.6066 22.1686 19.8012 22.3677 20.0003 21.5713C20.1994 20.3767 20.0003 20.0001 19.5357 19.0539C20.5312 17.262 20.7967 15.271 19.7348 13.28ZM8.12062 5.91326C7.58969 5.97962 7.19149 5.97962 6.72693 6.17872C6.66056 5.78052 6.51427 2.96471 7.50977 2.50015C8.17343 2.89834 8.58519 4.98412 8.12062 5.91326ZM17.3456 6.17872C16.8147 6.04599 16.3501 5.97962 15.8855 5.97962C15.3546 5.18322 16.0711 2.69924 16.6684 2.50015C17.6639 2.89834 17.3456 5.71416 17.3456 6.17872ZM11.9699 10.2271C10.0453 10.2271 8.45246 11.6208 8.45246 13.0145C8.45246 16.3328 15.4873 16.4656 15.4873 13.0145C15.4873 11.6208 13.9609 10.2271 11.9699 10.2271ZM9.38159 13.0145C9.38159 12.1517 10.5762 11.1562 12.0363 11.1562C13.4963 11.1562 14.5582 12.1517 14.5582 13.0145C14.5582 15.271 9.38159 15.2046 9.38159 13.0145Z" fill="black" fill-opacity="0.9"/>
<g id="Vector_2">
<path fill-rule="evenodd" clip-rule="evenodd" d="M11.1565 12.2942C11.27 12.1046 11.5156 12.043 11.7052 12.1565L12.4262 12.5882V13.4997C12.4262 13.7206 12.2471 13.8997 12.0262 13.8997C11.8052 13.8997 11.6262 13.7206 11.6262 13.4997V13.0416L11.2942 12.8429C11.1046 12.7294 11.043 12.4837 11.1565 12.2942Z" fill="black"/>
<path fill-rule="evenodd" clip-rule="evenodd" d="M12.8692 12.2942C12.7557 12.1046 12.5101 12.043 12.3206 12.1565L11.7941 12.4717C11.6045 12.5852 11.5429 12.8309 11.6564 13.0204C11.7698 13.2099 12.0155 13.2716 12.205 13.1581L12.7315 12.8429C12.9211 12.7294 12.9827 12.4837 12.8692 12.2942Z" fill="black"/>
</g>
<g id="Ellipse 1338">
<path d="M9 10.5C9 11.0523 8.55228 11.5 8 11.5C7.44772 11.5 7 11.0523 7 10.5C7 9.94772 7.44772 9.5 8 9.5C8.55228 9.5 9 9.94772 9 10.5Z" fill="black" fill-opacity="0.9"/>
<path d="M17 10.5C17 11.0523 16.5523 11.5 16 11.5C15.4477 11.5 15 11.0523 15 10.5C15 9.94772 15.4477 9.5 16 9.5C16.5523 9.5 17 9.94772 17 10.5Z" fill="black" fill-opacity="0.9"/>
</g>
</g>
</svg>
