<svg width="24" height="24" viewBox="0 0 24 24" fill="none" xmlns="http://www.w3.org/2000/svg">
<g id="&#230;&#168;&#161;&#229;&#158;&#139;">
<g id="Group 1000002740">
<path id="Vector" d="M19.1819 4.81934C17.6333 4.81934 16.3647 6.10505 16.3647 7.67648C16.3647 7.96219 16.3647 8.10505 16.5062 8.39076L11.999 10.9622L7.49188 8.39076C7.63331 8.10505 7.63331 7.96219 7.63331 7.67648C7.63331 6.10505 6.36474 4.81934 4.81617 4.81934C3.26617 4.81934 1.99902 6.10505 1.99902 7.67648C1.99902 9.24791 3.26617 10.5336 4.81617 10.5336C5.66045 10.5336 6.36474 10.105 6.92902 9.53362L11.2947 12.105V17.105C10.0276 17.3908 9.18188 18.5336 9.18188 19.8193C9.18188 21.3908 10.449 22.6765 11.999 22.6765C13.549 22.6765 14.8162 21.3908 14.8162 19.8193C14.8162 18.5336 13.9705 17.3908 12.7033 17.105V12.105L17.2105 9.67648C17.6333 10.1051 18.3376 10.5336 19.1819 10.5336C20.7319 10.5336 21.999 9.24791 21.999 7.67648C21.999 6.10505 20.7319 4.81934 19.1819 4.81934ZM4.81617 9.10505C3.97045 9.10505 3.4076 8.53362 3.4076 7.67648C3.4076 6.81934 3.97045 6.24791 4.81617 6.24791C5.66045 6.24791 6.22474 6.81934 6.22474 7.67648C6.22474 8.53362 5.66045 9.10505 4.81617 9.10505ZM13.4076 19.8193C13.4076 20.6765 12.7033 21.2479 11.999 21.2479C11.1533 21.2479 10.5905 20.6765 10.5905 19.8193C10.5905 18.9622 11.1533 18.3908 11.999 18.3908C12.8447 18.3908 13.4076 18.9622 13.4076 19.8193ZM19.1819 9.10505C18.3376 9.10505 17.7733 8.53362 17.7733 7.67648C17.7733 6.81934 18.3376 6.24791 19.1819 6.24791C20.0276 6.24791 20.5905 6.81934 20.5905 7.67648C20.5905 8.53362 19.8862 9.10505 19.1819 9.10505Z" fill="black" fill-opacity="0.9"/>
<path id="Vector_2" d="M4.25187 11.9628C3.68901 11.9628 3.26616 11.8199 2.84473 11.5342V16.2485C2.84473 16.677 3.12616 17.1056 3.54901 17.3913L7.7733 19.9628V19.8199C7.7733 19.3913 7.91473 18.9628 8.05473 18.5342L4.25187 16.2485V11.9628ZM19.7447 16.2485L15.9433 18.3913C16.0833 18.8199 16.2247 19.2485 16.2247 19.677V19.8199L20.449 17.2485C20.8719 16.9628 21.1547 16.5342 21.1547 16.1056V11.5342C20.7319 11.677 20.169 11.8199 19.7447 11.9628V16.2485ZM7.9133 5.10561L11.999 2.67704L15.9419 4.96275C16.2247 4.53418 16.6476 4.24847 17.0704 3.96275L12.7019 1.39132C12.279 1.24847 11.7162 1.24847 11.2933 1.39132L6.78615 4.10561C7.20901 4.24847 7.63187 4.67704 7.9133 5.10561Z" fill="black" fill-opacity="0.9"/>
</g>
</g>
</svg>
