<svg width="24" height="24" viewBox="0 0 24 24" fill="none" xmlns="http://www.w3.org/2000/svg">
<g id="gongxiang 1">
<path id="Vector" d="M18.253 1.99512C18.8676 1.99506 19.4728 2.14607 20.0153 2.43487C20.5578 2.72367 21.021 3.1414 21.3642 3.65129C21.7073 4.16118 21.9199 4.74761 21.9832 5.35895C22.0464 5.97029 21.9584 6.58781 21.7269 7.15716C21.4955 7.7265 21.1276 8.23022 20.6557 8.62398C20.1838 9.01774 19.6223 9.28946 19.0207 9.41524C18.4191 9.54102 17.7958 9.517 17.2057 9.34528C16.6155 9.17357 16.0767 8.85943 15.6365 8.43051L11.7351 10.3754C11.9092 10.8837 12.0034 11.4278 12.0034 11.9944C12.0034 12.6227 11.8876 13.2235 11.6759 13.7776L15.4357 15.7692C16.0444 15.0769 16.8869 14.6331 17.8022 14.5227C18.7174 14.4122 19.6413 14.6427 20.3973 15.1703C21.1533 15.6978 21.6885 16.4854 21.9006 17.3826C22.1128 18.2797 21.987 19.2236 21.5473 20.0338C21.1076 20.8441 20.3848 21.464 19.517 21.7751C18.6492 22.0863 17.6971 22.0668 16.8428 21.7204C15.9884 21.3741 15.2916 20.7252 14.8854 19.8976C14.4792 19.07 14.3921 18.1218 14.6407 17.2341L10.8285 15.215C10.1632 16.0049 9.26959 16.5694 8.27052 16.8309C7.27145 17.0924 6.21592 17.0381 5.24896 16.6755C4.28199 16.3128 3.45105 15.6596 2.8703 14.8057C2.28956 13.9517 1.98751 12.9389 2.00566 11.9063C2.0238 10.8737 2.36126 9.87212 2.97166 9.03909C3.58205 8.20606 4.43544 7.58249 5.41455 7.25406C6.39366 6.92564 7.45045 6.90847 8.43971 7.20492C9.42898 7.50136 10.3022 8.09688 10.9393 8.90964L14.7265 7.02144C14.5215 6.45508 14.4559 5.84766 14.5353 5.25058C14.6147 4.6535 14.8367 4.08433 15.1827 3.59125C15.5286 3.09816 15.9883 2.69567 16.5227 2.41784C17.0571 2.14001 17.6506 1.99501 18.253 1.99512ZM18.253 16.1608C17.7005 16.1608 17.1706 16.3803 16.7799 16.771C16.3893 17.1616 16.1698 17.6915 16.1698 18.244C16.1698 18.7965 16.3893 19.3264 16.7799 19.717C17.1706 20.1077 17.7005 20.3272 18.253 20.3272C18.8055 20.3272 19.3353 20.1077 19.726 19.717C20.1167 19.3264 20.3362 18.7965 20.3362 18.244C20.3362 17.6915 20.1167 17.1616 19.726 16.771C19.3353 16.3803 18.8055 16.1608 18.253 16.1608ZM7.00374 8.66133C6.56601 8.66129 6.13255 8.74748 5.72813 8.91497C5.32371 9.08246 4.95625 9.32797 4.64671 9.63748C4.33718 9.94699 4.09164 10.3144 3.92412 10.7189C3.7566 11.1233 3.67038 11.5567 3.67038 11.9944C3.67038 12.4322 3.7566 12.8656 3.92412 13.27C4.09164 13.6744 4.33718 14.0419 4.64671 14.3514C4.95625 14.6609 5.32371 14.9064 5.72813 15.0739C6.13255 15.2414 6.56601 15.3276 7.00374 15.3275C7.88769 15.3275 8.73541 14.9763 9.36043 14.3512C9.98546 13.7261 10.3366 12.8784 10.3366 11.9944C10.3366 11.1105 9.98546 10.2627 9.36043 9.63766C8.73541 9.01259 7.88769 8.6614 7.00374 8.66133ZM18.253 3.66167C17.7005 3.66167 17.1706 3.88115 16.7799 4.27182C16.3893 4.6625 16.1698 5.19236 16.1698 5.74486C16.1698 6.29736 16.3893 6.82722 16.7799 7.2179C17.1706 7.60857 17.7005 7.82805 18.253 7.82805C18.8055 7.82805 19.3353 7.60857 19.726 7.2179C20.1167 6.82722 20.3362 6.29736 20.3362 5.74486C20.3362 5.19236 20.1167 4.6625 19.726 4.27182C19.3353 3.88115 18.8055 3.66167 18.253 3.66167Z" fill="black" fill-opacity="0.9"/>
</g>
</svg>
