<svg width="24" height="24" viewBox="0 0 24 24" fill="none" xmlns="http://www.w3.org/2000/svg">
<g id="&#231;&#159;&#165;&#232;&#175;&#134;" clip-path="url(#clip0_225_342)">
<g id="Group">
<path id="Vector" d="M19.244 7.5152L12.023 11.2351L4.75824 7.4605L12.023 3.72964L19.244 7.5152ZM21.3994 8.21542C21.5963 8.12789 21.7276 7.98566 21.7932 7.78872C21.8662 7.58449 21.8662 7.38756 21.7932 7.19791C21.7276 7.00098 21.5963 6.85874 21.3994 6.77122L12.395 2.07756C12.271 2.02651 12.147 2.00098 12.023 2.00098C11.9063 2.00098 11.786 2.02651 11.662 2.07756L2.60287 6.69463C2.40594 6.81863 2.27465 6.9718 2.209 7.15415C2.13606 7.3365 2.13606 7.52614 2.209 7.72308C2.27465 7.91272 2.40594 8.06225 2.60287 8.17166L11.6291 12.8981C11.7385 12.9638 11.8662 12.9966 12.0121 12.9966C12.1652 12.9966 12.2929 12.9638 12.395 12.8981L21.3994 8.21542Z" fill="black" fill-opacity="0.9"/>
<path id="Vector_2" d="M21.3779 12.8979C21.6916 12.7374 21.8448 12.504 21.8375 12.1976C21.8302 11.8913 21.7025 11.6469 21.4545 11.4646C21.2065 11.2823 20.9367 11.2786 20.6449 11.4537L12.0016 15.9176L3.33636 11.3661C3.02272 11.2275 2.74555 11.2494 2.50485 11.4318C2.27145 11.6214 2.15474 11.8621 2.15474 12.1539C2.15474 12.4529 2.30427 12.6827 2.60332 12.8432L11.6296 17.5915C11.7755 17.628 11.9068 17.6462 12.0235 17.6462C12.1475 17.6462 12.2714 17.6207 12.3954 17.5696L21.3779 12.8979ZM21.3779 17.2523C21.677 17.1138 21.8265 16.8877 21.8265 16.574C21.8265 16.2531 21.7025 16.0014 21.4545 15.8191C21.2065 15.6367 20.9367 15.6258 20.6449 15.7863L12.0016 20.2502L3.33636 15.7316C3.03731 15.5711 2.76744 15.5784 2.52674 15.7534C2.27874 15.9285 2.1511 16.1692 2.1438 16.4755C2.13651 16.7819 2.28968 17.0153 2.60332 17.1758L11.6296 21.9022C11.7536 21.9679 11.8812 22.0007 12.0125 22.0007C12.1438 22.0007 12.2714 21.9679 12.3954 21.9022L21.3779 17.2523Z" fill="black" fill-opacity="0.9"/>
</g>
</g>
<defs>
<clipPath id="clip0_225_342">
<rect width="24" height="24" fill="white"/>
</clipPath>
</defs>
</svg>
