<svg width="24" height="24" viewBox="0 0 24 24" fill="none" xmlns="http://www.w3.org/2000/svg">
<g id="icon_&#230;&#143;&#144;&#231;&#164;&#186;&#232;&#175;&#141;" clip-path="url(#clip0_225_387)">
<g id="tishiciyouhuaqi 1">
<g id="Group 1000002741">
<path id="Vector" d="M15.7842 5.47729L16.868 6.07028C16.894 6.08422 16.9154 6.1053 16.9297 6.13103L17.5217 7.21577C17.5683 7.30174 17.6373 7.37353 17.7213 7.42356C17.8053 7.47359 17.9013 7.5 17.999 7.5C18.0968 7.5 18.1928 7.47359 18.2768 7.42356C18.3608 7.37353 18.4297 7.30174 18.4763 7.21577L19.0693 6.13103C19.0837 6.1053 19.1051 6.08422 19.131 6.07028L20.2148 5.47729C20.301 5.43093 20.3731 5.36207 20.4233 5.27803C20.4736 5.19399 20.5001 5.09791 20.5001 5C20.5001 4.90209 20.4736 4.80601 20.4233 4.72197C20.3731 4.63793 20.301 4.56907 20.2148 4.52271L19.0915 3.90851L18.4773 2.78423C18.4307 2.69826 18.3618 2.62647 18.2778 2.57644C18.1937 2.52641 18.0978 2.5 18 2.5C17.9022 2.5 17.8063 2.52641 17.7222 2.57644C17.6382 2.62647 17.5693 2.69826 17.5227 2.78423L16.9297 3.86897C16.9154 3.8947 16.894 3.91578 16.868 3.92972L15.7842 4.52271C15.6983 4.5693 15.6265 4.63824 15.5764 4.72225C15.5264 4.80626 15.5 4.90222 15.5 5C15.5 5.09778 15.5264 5.19374 15.5764 5.27775C15.6265 5.36177 15.6983 5.4307 15.7842 5.47729Z" stroke="black" stroke-width="1.3"/>
<path id="Vector_2" d="M8.22738 5.38183L9.09441 5.85623C9.11516 5.86738 9.13229 5.88424 9.14377 5.90482L9.6174 6.77262C9.65466 6.84139 9.70982 6.89883 9.77702 6.93885C9.84423 6.97887 9.921 7 9.99923 7C10.0775 7 10.1542 6.97887 10.2214 6.93885C10.2886 6.89883 10.3438 6.84139 10.3811 6.77262L10.8555 5.90482C10.8669 5.88424 10.8841 5.86738 10.9048 5.85623L11.7718 5.38183C11.8408 5.34474 11.8985 5.28965 11.9387 5.22242C11.9789 5.15519 12.0001 5.07833 12.0001 5C12.0001 4.92167 11.9789 4.84481 11.9387 4.77758C11.8985 4.71035 11.8408 4.65526 11.7718 4.61817L10.8732 4.1268L10.3818 3.22738C10.3446 3.15861 10.2894 3.10117 10.2222 3.06115C10.155 3.02113 10.0782 3 10 3C9.92178 3 9.84501 3.02113 9.7778 3.06115C9.71059 3.10117 9.65544 3.15861 9.61817 3.22738L9.14377 4.09518C9.13229 4.11576 9.11516 4.13262 9.09441 4.14377L8.22738 4.61817C8.15861 4.65544 8.10117 4.71059 8.06115 4.7778C8.02113 4.84501 8 4.92178 8 5C8 5.07822 8.02113 5.15499 8.06115 5.2222C8.10117 5.28941 8.15861 5.34456 8.22738 5.38183Z" stroke="black" stroke-width="1.2"/>
<path id="Vector_3" d="M16.3411 13.5727L17.6416 14.2843C17.6727 14.3011 17.6984 14.3264 17.7157 14.3572L18.4261 15.6589C18.482 15.7621 18.5647 15.8482 18.6655 15.9083C18.7663 15.9683 18.8815 16 18.9988 16C19.1162 16 19.2313 15.9683 19.3321 15.9083C19.433 15.8482 19.5157 15.7621 19.5716 15.6589L20.2832 14.3572C20.3004 14.3264 20.3261 14.3011 20.3572 14.2843L21.6578 13.5727C21.7613 13.5171 21.8477 13.4345 21.908 13.3336C21.9683 13.2328 22.0001 13.1175 22.0001 13C22.0001 12.8825 21.9683 12.7672 21.908 12.6664C21.8477 12.5655 21.7613 12.4829 21.6578 12.4273L20.3098 11.6902L19.5727 10.3411C19.5168 10.2379 19.4341 10.1518 19.3333 10.0917C19.2325 10.0317 19.1173 10 19 10C18.8827 10 18.7675 10.0317 18.6667 10.0917C18.5659 10.1518 18.4832 10.2379 18.4273 10.3411L17.7157 11.6428C17.6984 11.6736 17.6727 11.6989 17.6416 11.7157L16.3411 12.4273C16.2379 12.4832 16.1518 12.5659 16.0917 12.6667C16.0317 12.7675 16 12.8827 16 13C16 13.1173 16.0317 13.2325 16.0917 13.3333C16.1518 13.4341 16.2379 13.5168 16.3411 13.5727Z" stroke="black" stroke-width="1.4"/>
<path id="Vector 258" d="M14.5 8.5L5 18" stroke="black" stroke-opacity="0.9" stroke-width="1.8" stroke-linecap="round"/>
</g>
<path id="Vector_4" d="M16.3411 13.5727L17.6416 14.2843C17.6727 14.3011 17.6984 14.3264 17.7157 14.3572L18.4261 15.6589C18.482 15.7621 18.5647 15.8482 18.6655 15.9083C18.7663 15.9683 18.8815 16 18.9988 16C19.1162 16 19.2313 15.9683 19.3321 15.9083C19.433 15.8482 19.5157 15.7621 19.5716 15.6589L20.2832 14.3572C20.3004 14.3264 20.3261 14.3011 20.3572 14.2843L21.6578 13.5727C21.7613 13.5171 21.8477 13.4345 21.908 13.3336C21.9683 13.2328 22.0001 13.1175 22.0001 13C22.0001 12.8825 21.9683 12.7672 21.908 12.6664C21.8477 12.5655 21.7613 12.4829 21.6578 12.4273L20.3098 11.6902L19.5727 10.3411C19.5168 10.2379 19.4341 10.1518 19.3333 10.0917C19.2325 10.0317 19.1173 10 19 10C18.8827 10 18.7675 10.0317 18.6667 10.0917C18.5659 10.1518 18.4832 10.2379 18.4273 10.3411L17.7157 11.6428C17.6984 11.6736 17.6727 11.6989 17.6416 11.7157L16.3411 12.4273C16.2379 12.4832 16.1518 12.5659 16.0917 12.6667C16.0317 12.7675 16 12.8827 16 13C16 13.1173 16.0317 13.2325 16.0917 13.3333C16.1518 13.4341 16.2379 13.5168 16.3411 13.5727Z" stroke="black" stroke-width="1.4"/>
</g>
</g>
<defs>
<clipPath id="clip0_225_387">
<rect width="24" height="24" fill="white"/>
</clipPath>
</defs>
</svg>
