<svg width="24" height="24" viewBox="0 0 24 24" fill="none" xmlns="http://www.w3.org/2000/svg">
<g id="RAG">
<path id="Vector" d="M18.7338 15.641C18.9124 15.641 19.0837 15.7119 19.21 15.8382C19.3363 15.9645 19.4072 16.1358 19.4072 16.3144V18.3346H21.4274C21.606 18.3346 21.7773 18.4055 21.9036 18.5318C22.0299 18.6581 22.1008 18.8294 22.1008 19.008C22.1008 19.1866 22.0299 19.3579 21.9036 19.4842C21.7773 19.6105 21.606 19.6814 21.4274 19.6814H19.4072V21.7016C19.4072 21.8802 19.3363 22.0515 19.21 22.1778C19.0837 22.3041 18.9124 22.375 18.7338 22.375C18.5552 22.375 18.3839 22.3041 18.2577 22.1778C18.1314 22.0515 18.0604 21.8802 18.0604 21.7016V19.6814H16.0402C15.8616 19.6814 15.6903 19.6105 15.564 19.4842C15.4378 19.3579 15.3668 19.1866 15.3668 19.008C15.3668 18.8294 15.4378 18.6581 15.564 18.5318C15.6903 18.4055 15.8616 18.3346 16.0402 18.3346H18.0604V16.3144C18.0604 16.1358 18.1314 15.9645 18.2577 15.8382C18.3839 15.7119 18.5552 15.641 18.7338 15.641ZM20.0806 2.375C20.6164 2.375 21.1303 2.58784 21.5091 2.9667C21.888 3.34556 22.1008 3.85941 22.1008 4.3952V13.4363C22.1008 13.6149 22.0299 13.7862 21.9036 13.9124C21.7773 14.0387 21.606 14.1097 21.4274 14.1097C21.2488 14.1097 21.0775 14.0387 20.9513 13.9124C20.825 13.7862 20.754 13.6149 20.754 13.4363V4.3952C20.754 4.2166 20.6831 4.04532 20.5568 3.91904C20.4305 3.79275 20.2592 3.7218 20.0806 3.7218H3.91901C3.74041 3.7218 3.56913 3.79275 3.44284 3.91904C3.31655 4.04532 3.2456 4.2166 3.2456 4.3952V17.6444C3.2456 17.823 3.31655 17.9942 3.44284 18.1205C3.56913 18.2468 3.74041 18.3178 3.91901 18.3178H11.7574C11.936 18.3178 12.1073 18.3887 12.2336 18.515C12.3598 18.6413 12.4308 18.8126 12.4308 18.9912C12.4308 19.1698 12.3598 19.341 12.2336 19.4673C12.1073 19.5936 11.936 19.6646 11.7574 19.6646H3.91901C3.38321 19.6646 2.86937 19.4517 2.49051 19.0729C2.11165 18.694 1.8988 18.1802 1.8988 17.6444V4.3952C1.8988 3.85941 2.11165 3.34556 2.49051 2.9667C2.86937 2.58784 3.38321 2.375 3.91901 2.375H20.0806ZM17.0503 5.97769C17.3704 5.97791 17.687 6.04331 17.981 6.16991C18.2749 6.2965 18.54 6.48164 18.7601 6.71404C18.9801 6.94643 19.1506 7.22121 19.261 7.52162C19.3714 7.82203 19.4194 8.14178 19.4022 8.46137C19.385 8.78096 19.3029 9.0937 19.1608 9.38052C19.0188 9.66733 18.8198 9.92221 18.5761 10.1296C18.3323 10.337 18.0489 10.4926 17.743 10.5869C17.4372 10.6812 17.1153 10.7122 16.7971 10.678L15.6806 12.4693C15.9146 12.8425 16.0393 13.2739 16.0405 13.7144C16.0418 14.1549 15.9196 14.587 15.6877 14.9615C15.4559 15.3361 15.1237 15.6382 14.7289 15.8336C14.334 16.0289 13.8924 16.1097 13.4539 16.0668C13.0155 16.0239 12.5979 15.8589 12.2485 15.5907C11.899 15.3224 11.6318 14.9616 11.477 14.5492C11.3222 14.1367 11.2861 13.6892 11.3728 13.2573C11.4595 12.8254 11.6655 12.4264 11.9675 12.1056L10.8443 10.6322C10.5882 10.6908 10.3242 10.7063 10.0631 10.678L8.94661 12.4693C9.24674 12.9484 9.36464 13.5194 9.27881 14.0782C9.19299 14.6371 8.90915 15.1464 8.47908 15.5134C8.049 15.8803 7.50135 16.0805 6.93599 16.0773C6.37064 16.0741 5.82527 15.8679 5.39934 15.4961C4.97341 15.1243 4.69532 14.6118 4.61577 14.0521C4.53623 13.4923 4.66053 12.9226 4.96602 12.4469C5.27151 11.9712 5.73782 11.6211 6.2799 11.4606C6.82198 11.3 7.40372 11.3397 7.919 11.5723L8.80789 10.1454C8.44467 9.84281 8.18083 9.43803 8.05063 8.98359C7.92043 8.52915 7.92989 8.04605 8.07779 7.59706C8.22568 7.14807 8.50517 6.75392 8.87996 6.46582C9.25475 6.17772 9.70752 6.00898 10.1794 5.98151C10.6514 5.95405 11.1206 6.06913 11.5263 6.31181C11.932 6.55449 12.2553 6.91356 12.4543 7.34237C12.6533 7.77117 12.7187 8.24991 12.6421 8.71638C12.5655 9.18286 12.3504 9.61552 12.0247 9.95817L13.1426 11.4269C13.6484 11.3082 14.1793 11.3596 14.653 11.573L15.5419 10.1454C15.1698 9.83533 14.9022 9.41816 14.7756 8.95063C14.649 8.48311 14.6695 7.98793 14.8344 7.53248C14.9992 7.07703 15.3004 6.68342 15.6969 6.40522C16.0934 6.12703 16.566 5.97775 17.0503 5.97769ZM6.94931 12.7117C6.68141 12.7117 6.42449 12.8181 6.23506 13.0076C6.04563 13.197 5.93921 13.4539 5.93921 13.7218C5.93921 13.9897 6.04563 14.2466 6.23506 14.4361C6.42449 14.6255 6.68141 14.7319 6.94931 14.7319C7.2172 14.7319 7.47413 14.6255 7.66356 14.4361C7.85299 14.2466 7.95941 13.9897 7.95941 13.7218C7.95941 13.4539 7.85299 13.197 7.66356 13.0076C7.47413 12.8181 7.2172 12.7117 6.94931 12.7117ZM13.6833 12.7117C13.4154 12.7117 13.1585 12.8181 12.9691 13.0076C12.7796 13.197 12.6732 13.4539 12.6732 13.7218C12.6732 13.9897 12.7796 14.2466 12.9691 14.4361C13.1585 14.6255 13.4154 14.7319 13.6833 14.7319C13.9512 14.7319 14.2081 14.6255 14.3976 14.4361C14.587 14.2466 14.6934 13.9897 14.6934 13.7218C14.6934 13.4539 14.587 13.197 14.3976 13.0076C14.2081 12.8181 13.9512 12.7117 13.6833 12.7117ZM10.3163 7.32449C10.0484 7.32449 9.79149 7.43092 9.60206 7.62035C9.41263 7.80978 9.30621 8.0667 9.30621 8.3346C9.30621 8.60249 9.41263 8.85942 9.60206 9.04885C9.79149 9.23828 10.0484 9.3447 10.3163 9.3447C10.5842 9.3447 10.8411 9.23828 11.0306 9.04885C11.22 8.85942 11.3264 8.60249 11.3264 8.3346C11.3264 8.0667 11.22 7.80978 11.0306 7.62035C10.8411 7.43092 10.5842 7.32449 10.3163 7.32449ZM17.0503 7.32449C16.7824 7.32449 16.5255 7.43092 16.3361 7.62035C16.1466 7.80978 16.0402 8.0667 16.0402 8.3346C16.0402 8.60249 16.1466 8.85942 16.3361 9.04885C16.5255 9.23828 16.7824 9.3447 17.0503 9.3447C17.3182 9.3447 17.5751 9.23828 17.7646 9.04885C17.954 8.85942 18.0604 8.60249 18.0604 8.3346C18.0604 8.0667 17.954 7.80978 17.7646 7.62035C17.5751 7.43092 17.3182 7.32449 17.0503 7.32449Z" fill="black" fill-opacity="0.9"/>
</g>
</svg>
