<?xml version="1.0" standalone="no"?><!DOCTYPE svg PUBLIC "-//W3C//DTD SVG 1.1//EN" "http://www.w3.org/Graphics/SVG/1.1/DTD/svg11.dtd"><svg t="1746608812731" class="icon" viewBox="0 0 5939 1024" version="1.1" xmlns="http://www.w3.org/2000/svg" p-id="1546" xmlns:xlink="http://www.w3.org/1999/xlink" width="1159.9609375" height="200"><path d="M665.6 358.4c28.16 0 51.2 21.504 51.2 47.7696v262.8608c0 26.2656-23.04 47.7696-51.2 47.7696s-51.2-21.504-51.2-47.7696V406.1696C614.4 379.904 636.9792 358.4 665.6 358.4z m1843.2 0c28.16 0 51.2 21.504 51.2 47.7696v262.8608c0 26.2656-23.04 47.7696-51.2 47.7696s-51.2-21.504-51.2-47.7696V406.1696C2457.6 379.904 2480.64 358.4 2508.8 358.4z m1536 0c28.16 0 51.2 21.504 51.2 47.7696v262.8608c0 26.2656-23.04 47.7696-51.2 47.7696s-51.2-21.504-51.2-47.7696V406.1696C3993.1392 379.904 4016.2304 358.4 4044.8 358.4z m1843.2 0c28.16 0 51.2 21.504 51.2 47.7696v262.8608c0 26.2656-23.04 47.7696-51.2 47.7696s-51.2-21.504-51.2-47.7696V406.1696c0-26.2656 22.5792-47.7696 51.2-47.7696zM2816 307.2c28.16 0 51.2 19.7632 51.2 43.8784v373.0432c0 24.1152-23.04 43.8784-51.2 43.8784s-51.2-19.7632-51.2-43.8784V351.0784c0-24.1152 23.04-43.8784 51.2-43.8784z m921.6-51.2c28.16 0 51.2 20.2752 51.2 45.056v473.088c0 24.7808-23.04 45.056-51.2 45.056s-51.2-20.2752-51.2-45.056V301.056c0-24.7808 23.04-45.056 51.2-45.056zM3123.2 358.4c28.16 0 51.2 23.04 51.2 51.2v204.8c0 28.16-23.04 51.2-51.2 51.2s-51.2-23.04-51.2-51.2V409.6c0-28.6208 23.04-51.2 51.2-51.2z m307.2-51.2c28.16 0 51.2 21.7088 51.2 48.128v313.344c0 26.4192-23.04 48.128-51.2 48.128s-51.2-21.7088-51.2-48.128V355.328c-0.4608-26.88 22.6304-48.128 51.2-48.128zM358.4 256c28.16 0 51.2 20.2752 51.2 45.056v473.088c0 24.7808-23.04 45.056-51.2 45.056s-51.2-20.2752-51.2-45.056V301.056C307.2 276.2752 330.24 256 358.4 256zM51.2 358.4c28.16 0 51.2 23.04 51.2 51.2v204.8c0 28.16-23.04 51.2-51.2 51.2s-51.2-23.04-51.2-51.2V409.6c0-28.6208 22.5792-51.2 51.2-51.2z m921.6-102.4c28.16 0 51.2 20.992 51.2 46.4896v419.0208c0 25.5488-23.04 46.4896-51.2 46.4896s-51.2-20.992-51.2-46.4896V302.4896C921.6 276.992 944.64 256 972.8 256z m1228.8 0c28.16 0 51.2 20.992 51.2 46.4896v419.0208c0 25.5488-23.04 46.4896-51.2 46.4896s-51.2-20.992-51.2-46.4896V302.4896C2150.4 276.992 2173.44 256 2201.6 256z m2150.4 0c28.16 0 51.2 22.016 51.2 48.9472v465.3056c0 26.88-23.04 48.9472-51.2 48.9472s-51.2-22.016-51.2-48.9472V304.9472c0-26.88 23.04-48.9472 51.2-48.9472z m1228.8 0c28.16 0 51.2 20.992 51.2 46.4896v419.0208c0 25.5488-23.04 46.4896-51.2 46.4896s-51.2-20.992-51.2-46.4896V302.4896c0-25.5488 23.04-46.4896 51.2-46.4896zM1280 204.8c28.16 0 51.2 21.2992 51.2 47.2064v519.9872c0 25.9072-23.04 47.2064-51.2 47.2064s-51.2-21.2992-51.2-47.2064V252.0064c0-25.9072 23.04-47.2064 51.2-47.2064z m614.4 0c28.16 0 51.2 20.6336 51.2 45.8752v573.8496c0 25.2416-23.04 45.8752-51.2 45.8752s-51.2-20.6336-51.2-45.8752V250.6752c0-25.2416 23.04-45.8752 51.2-45.8752z m2764.8-51.2c28.16 0 51.2 21.504 51.2 47.7696v621.2608c0 26.2656-23.04 47.7696-51.2 47.7696s-51.2-21.504-51.2-47.7696V201.3696C4607.5392 175.104 4630.6304 153.6 4659.2 153.6z m614.4 0c28.16 0 51.2 21.504 51.2 47.7696v621.2608c0 26.2656-23.04 47.7696-51.2 47.7696s-51.2-21.504-51.2-47.7696V201.3696c0-26.2656 22.5792-47.7696 51.2-47.7696zM1587.2 0c28.16 0 51.2 20.992 51.2 46.4896v931.0208c0 25.5488-23.04 46.4896-51.2 46.4896s-51.2-20.992-51.2-46.4896V46.4896C1536 20.992 1559.04 0 1587.2 0z m3379.2 51.2c28.16 0 51.2 20.736 51.2 46.08v829.44c0 25.344-23.04 46.08-51.2 46.08s-51.2-20.736-51.2-46.08V97.28c0-25.344 23.04-46.08 51.2-46.08z" fill="#C280FF" p-id="1547"></path></svg>