<?xml version="1.0" standalone="no"?><!DOCTYPE svg PUBLIC "-//W3C//DTD SVG 1.1//EN" "http://www.w3.org/Graphics/SVG/1.1/DTD/svg11.dtd"><svg t="1747297252095" class="icon" viewBox="0 0 1024 1024" version="1.1" xmlns="http://www.w3.org/2000/svg" p-id="8541" xmlns:xlink="http://www.w3.org/1999/xlink" width="200" height="200"><path d="M512 128a42.666667 42.666667 0 0 1 42.56 39.466667L554.666667 170.666667v682.666666a42.666667 42.666667 0 0 1-85.226667 3.2L469.333333 853.333333V170.666667a42.666667 42.666667 0 0 1 42.666667-42.666667z m192 128a42.666667 42.666667 0 0 1 42.56 39.466667L746.666667 298.666667v426.666666a42.666667 42.666667 0 0 1-85.226667 3.2L661.333333 725.333333V298.666667a42.666667 42.666667 0 0 1 42.666667-42.666667z m-384 0a42.666667 42.666667 0 0 1 42.56 39.466667L362.666667 298.666667v426.666666a42.666667 42.666667 0 0 1-85.226667 3.2L277.333333 725.333333V298.666667a42.666667 42.666667 0 0 1 42.666667-42.666667z m576 128a42.666667 42.666667 0 0 1 42.56 39.466667L938.666667 426.666667v170.666666a42.666667 42.666667 0 0 1-85.226667 3.2L853.333333 597.333333v-170.666666a42.666667 42.666667 0 0 1 42.666667-42.666667zM128 384a42.666667 42.666667 0 0 1 42.56 39.466667L170.666667 426.666667v170.666666a42.666667 42.666667 0 0 1-85.226667 3.2L85.333333 597.333333v-170.666666a42.666667 42.666667 0 0 1 42.666667-42.666667z" fill="#2E3531" p-id="8542"></path></svg>