<?xml version="1.0" standalone="no"?>
<svg xmlns="http://www.w3.org/2000/svg" width="24" height="24"><rect width="24" height="24" opacity="0"></rect><g mask="url(#hms_mask_0)"><path d="M12 1.94Q10.92 1.94 10 2.48Q9.07 3.02 8.53 3.95Q7.99 4.87 7.99 5.95L7.99 11.21Q7.99 12.29 8.53 13.21Q9.07 14.14 10 14.68Q10.92 15.22 12 15.22Q13.08 15.22 14 14.68Q14.93 14.14 15.47 13.21Q16.01 12.29 16.01 11.21L16.01 5.95Q16.01 4.87 15.47 3.95Q14.93 3.02 14 2.48Q13.08 1.94 12 1.94ZM12 3.46Q13.06 3.46 13.78 4.18Q14.5 4.9 14.5 5.95L14.5 11.21Q14.5 12.24 13.78 12.97Q13.06 13.7 12 13.7Q10.97 13.7 10.24 12.97Q9.5 12.24 9.5 11.21L9.5 5.95Q9.5 4.9 10.24 4.18Q10.97 3.46 12 3.46ZM19.51 11.23Q19.51 10.92 19.28 10.69Q19.06 10.46 18.74 10.46Q18.43 10.46 18.22 10.69Q18 10.92 18 11.23Q18 12.84 17.2 14.22Q16.39 15.6 15.01 16.4Q13.63 17.21 12 17.21Q10.37 17.21 8.99 16.4Q7.61 15.6 6.8 14.22Q6 12.84 6 11.23Q6 10.92 5.78 10.69Q5.57 10.46 5.26 10.46Q4.94 10.46 4.73 10.69Q4.51 10.92 4.51 11.23Q4.51 13.13 5.4 14.76Q6.29 16.39 7.84 17.44Q9.38 18.48 11.26 18.67L11.26 21.29Q11.26 21.6 11.47 21.82Q11.69 22.03 12 22.03Q12.31 22.03 12.53 21.82Q12.74 21.6 12.74 21.29L12.74 18.67Q14.62 18.48 16.16 17.44Q17.71 16.39 18.61 14.76Q19.51 13.13 19.51 11.23Z" fill="rgba(0,0,0,0.9019607843137255)"></path></g><defs><mask id="hms_mask_0"><rect width="24" height="24" fill="#ffffff"></rect><g><path d="M5.59 2.54Q5.33 2.26 4.96 2.11Q4.58 1.97 4.18 1.97Q3.72 1.97 3.35 2.11Q2.98 2.26 2.69 2.54Q2.09 3.19 2.09 4.03Q2.09 4.44 2.24 4.81Q2.4 5.18 2.69 5.42L18.36 21.12Q18.67 21.41 19.06 21.58Q19.44 21.74 19.82 21.74Q20.23 21.74 20.62 21.58Q21 21.41 21.26 21.12Q21.55 20.86 21.72 20.46Q21.89 20.06 21.89 19.68Q21.89 19.3 21.73 18.9Q21.58 18.5 21.26 18.22L5.59 2.54Z" fill="#000000"></path></g></mask></defs><g><path d="M20.35 20.18Q20.57 19.97 20.57 19.66Q20.57 19.34 20.35 19.13L4.68 3.46Q4.46 3.24 4.15 3.24Q3.84 3.24 3.6 3.46Q3.38 3.67 3.38 3.98Q3.38 4.3 3.6 4.51L19.27 20.18Q19.49 20.4 19.81 20.4Q20.14 20.4 20.35 20.18Z" fill="rgba(0,0,0,0.9019607843137255)"></path></g></svg>